<?xml version="1.0" encoding="UTF-8"?>
<svg id="Ebene_1" data-name="Ebene 1" xmlns="http://www.w3.org/2000/svg" viewBox="0 0 22 16">
  <defs>
    <style>
      .cls-1 {
        fill: #fff;
        stroke-width: 0px;
      }
    </style>
  </defs>
  <path class="cls-1" d="m5.5,16c-1.52,0-2.82-.52-3.89-1.57-1.07-1.05-1.61-2.34-1.61-3.85,0-1.3.39-2.46,1.17-3.48.79-1.02,1.81-1.67,3.08-1.95.42-1.53,1.25-2.77,2.5-3.72,1.25-.95,2.67-1.43,4.25-1.43,1.95,0,3.61.68,4.96,2.04,1.36,1.35,2.04,3.01,2.04,4.96,1.15.13,2.11.63,2.86,1.5.76.85,1.14,1.85,1.14,3,0,1.25-.44,2.32-1.31,3.19-.87.87-1.94,1.31-3.19,1.31h-5.5c-.55,0-1.02-.2-1.41-.59-.39-.39-.59-.86-.59-1.41v-5.15l-1.6,1.55-1.4-1.4,4-4,4,4-1.4,1.4-1.6-1.55v5.15h5.5c.7,0,1.29-.24,1.77-.73.49-.48.73-1.07.73-1.77s-.24-1.29-.73-1.77c-.48-.49-1.07-.73-1.77-.73h-1.5v-2c0-1.38-.49-2.56-1.46-3.54-.97-.97-2.15-1.46-3.54-1.46s-2.56.49-3.54,1.46c-.97.98-1.46,2.16-1.46,3.54h-.5c-.97,0-1.79.34-2.47,1.03-.69.68-1.03,1.5-1.03,2.47s.34,1.8,1.03,2.5c.68.67,1.5,1,2.47,1h2.5v2h-2.5Z"/>
</svg>