<?xml version="1.0" encoding="UTF-8"?>
<svg id="Ebene_1" data-name="Ebene 1" xmlns="http://www.w3.org/2000/svg" viewBox="0 0 20 20">
  <defs>
    <style>
      .cls-1 {
        fill: #fff;
        stroke-width: 0px;
      }
    </style>
  </defs>
  <path class="cls-1" d="m11,.05v2.02c3.95.49,7,3.85,7,7.93,0,3.21-1.92,6-4.72,7.28l-2.28-2.28v5h5l-1.22-1.22c3.13-1.71,5.22-5.02,5.22-8.78C20,4.82,16.05.55,11,.05m-2-.05c-1.95.2-3.8.96-5.32,2.21l1.42,1.42c1.13-.88,2.48-1.43,3.9-1.63V0M2.2,3.68C.96,5.2.2,7.05,0,9h2c.19-1.42.75-2.77,1.63-3.9l-1.43-1.42m1.8,2.32v2h3v1h-1c-1.1,0-2,.9-2,2v3h5v-2h-3v-1h1c1.11,0,2-.89,2-2v-1c0-1.1-.89-2-2-2h-3m6,0v5h3v3h2v-3h1v-2h-1v-3h-2v3h-1v-3h-2M0,11c.2,1.95.97,3.8,2.22,5.32l1.42-1.42c-.88-1.13-1.44-2.48-1.64-3.9H0m5.11,5.37l-1.43,1.42c1.52,1.24,3.37,2.01,5.32,2.21v-2c-1.42-.19-2.76-.75-3.89-1.63Z"/>
</svg>