<?xml version="1.0" encoding="UTF-8"?>
<svg id="Ebene_1" data-name="Ebene 1" xmlns="http://www.w3.org/2000/svg" viewBox="0 0 16 16">
  <defs>
    <style>
      .cls-1 {
        fill: #fff;
        stroke-width: 0px;
      }
    </style>
  </defs>
  <path class="cls-1" d="m8,0c2.21,0,4,1.79,4,4s-1.79,4-4,4-4-1.79-4-4S5.79,0,8,0m0,2c-1.1,0-2,.9-2,2s.9,2,2,2,2-.9,2-2-.9-2-2-2m0,7c2.67,0,8,1.33,8,4v3H0v-3c0-2.67,5.33-4,8-4m0,1.9c-2.97,0-6.1,1.46-6.1,2.1v1.1h12.2v-1.1c0-.64-3.13-2.1-6.1-2.1Z"/>
</svg>