<?xml version="1.0" encoding="UTF-8"?>
<svg id="Ebene_1" data-name="Ebene 1" xmlns="http://www.w3.org/2000/svg" viewBox="0 0 20 20">
  <defs>
    <style>
      .cls-1 {
        fill: #fff;
        stroke-width: 0px;
      }
    </style>
  </defs>
  <path class="cls-1" d="m11,16h1c.55,0,1,.45,1,1h7v2h-7c0,.55-.45,1-1,1h-4c-.55,0-1-.45-1-1H0v-2h7c0-.55.45-1,1-1h1v-2H2c-.55,0-1-.45-1-1v-4c0-.55.45-1,1-1h16c.55,0,1,.45,1,1v4c0,.55-.45,1-1,1h-7v2M2,0h16c.55,0,1,.45,1,1v4c0,.55-.45,1-1,1H2c-.55,0-1-.45-1-1V1c0-.55.45-1,1-1m5,4h1v-2h-1v2m0,8h1v-2h-1v2M3,2v2h2v-2h-2m0,8v2h2v-2h-2Z"/>
</svg>