<?xml version="1.0" encoding="UTF-8"?>
<svg id="Ebene_1" data-name="Ebene 1" xmlns="http://www.w3.org/2000/svg" viewBox="0 0 24 14.5">
  <defs>
    <style>
      .cls-1 {
        fill: #fff;
        stroke-width: 0px;
      }
    </style>
  </defs>
  <path class="cls-1" d="m12,0c1.93,0,3.5,1.57,3.5,3.5s-1.57,3.5-3.5,3.5-3.5-1.57-3.5-3.5,1.57-3.5,3.5-3.5m-7,2.5c.56,0,1.08.15,1.53.42-.15,1.43.27,2.85,1.13,3.96-.5.96-1.5,1.62-2.66,1.62-1.66,0-3-1.34-3-3s1.34-3,3-3m14,0c1.66,0,3,1.34,3,3s-1.34,3-3,3c-1.16,0-2.16-.66-2.66-1.62.86-1.11,1.28-2.53,1.13-3.96.45-.27.97-.42,1.53-.42M5.5,12.75c0-2.07,2.91-3.75,6.5-3.75s6.5,1.68,6.5,3.75v1.75H5.5v-1.75m-5.5,1.75v-1.5c0-1.39,1.89-2.56,4.45-2.9-.59.68-.95,1.62-.95,2.65v1.75H0m24,0h-3.5v-1.75c0-1.03-.36-1.97-.95-2.65,2.56.34,4.45,1.51,4.45,2.9v1.5Z"/>
</svg>