<?xml version="1.0" encoding="UTF-8"?>
<svg id="Ebene_1" data-name="Ebene 1" xmlns="http://www.w3.org/2000/svg" viewBox="0 0 20 14">
  <defs>
    <style>
      .cls-1 {
        fill: #fff;
        stroke-width: 0px;
      }
    </style>
  </defs>
  <path class="cls-1" d="m14.5,7c1.38,0,2.5-1.12,2.5-2.5s-1.12-2.5-2.5-2.5-2.5,1.12-2.5,2.5,1.12,2.5,2.5,2.5m-7.5-1c1.66,0,3-1.34,3-3s-1.34-3-3-3-3,1.34-3,3,1.34,3,3,3m7.5,3c-1.83,0-5.5.92-5.5,2.75v2.25h11v-2.25c0-1.83-3.67-2.75-5.5-2.75m-7.5-1c-2.33,0-7,1.17-7,3.5v2.5h7v-2.25c0-.85.33-2.34,2.37-3.47-.87-.18-1.71-.28-2.37-.28Z"/>
</svg>