<?xml version="1.0" encoding="UTF-8"?>
<svg id="Ebene_1" data-name="Ebene 1" xmlns="http://www.w3.org/2000/svg" viewBox="0 0 215.58 210.2">
  <defs>
    <style>
      .cls-1 {
        fill: #e94e1b;
      }

      .cls-1, .cls-2 {
        stroke-width: 0px;
      }

      .cls-3 {
        font-size: 22.63px;
      }

      .cls-3, .cls-2, .cls-4 {
        fill: #fff;
      }

      .cls-3, .cls-4 {
        font-family: Verdana-Bold, Verdana;
        font-weight: 700;
      }

      .cls-4 {
        font-size: 41.17px;
      }
    </style>
  </defs>
  <rect class="cls-2" x="0" y="0" width="215.58" height="210.2" rx="105.1" ry="105.1"/>
  <rect class="cls-1" x="12.59" y="9.9" width="190.4" height="190.4" rx="95.2" ry="95.2"/>
  <text class="cls-4" transform="translate(40.33 99.79) rotate(-3.21) scale(.76 1)"><tspan x="0" y="0">eVoting</tspan></text>
  <rect class="cls-2" x="4.29" y="101.37" width="206.79" height="3.74" transform="translate(-5.61 6.19) rotate(-3.21)"/>
  <text class="cls-3" transform="translate(40.33 129.61) rotate(-3.21) scale(.76 1)"><tspan x="0" y="0">SZ-Ybbs</tspan></text>
  <path class="cls-2" d="m151.22,114.65c.25,4.41-3.13,8.19-7.54,8.44s-8.19-3.13-8.44-7.54,3.13-8.19,7.54-8.44c.76-.04,1.5.03,2.21.19l1.48-1.66c-1.19-.41-2.47-.6-3.81-.53-5.51.31-9.73,5.03-9.42,10.54.31,5.51,5.03,9.73,10.54,9.42,5.51-.31,9.73-5.03,9.42-10.54m-14.18-1.13l-1.33,1.5,4.74,4.24,9.42-10.54-1.49-1.34-8.1,9.06-3.26-2.91Z"/>
</svg>